Coordinates
version=1
nRows=14
nColumns=24
inDegrees=yes

Units are S.I. units (second, meters, Newtons, ...)
Angles are in degrees.

endheader
time	pelvis_tilt	pelvis_list	pelvis_rotation	pelvis_tx	pelvis_ty	pelvis_tz	hip_flexion_r	hip_adduction_r	hip_rotation_r	knee_angle_r	ankle_angle_r	subtalar_angle_r	mtp_angle_r	hip_flexion_l	hip_adduction_l	hip_rotation_l	knee_angle_l	ankle_angle_l	subtalar_angle_l	mtp_angle_l	lumbar_extension	lumbar_bending	lumbar_rotation
      4.50500000	     -7.54801199	      2.86384498	     -7.27252222	     -0.46030458	     -0.04824180	      0.60437505	     -9.11865530	     -2.16951774	     -1.52786049	    -12.44168194	     14.69700865	      1.04196399	      3.34326064	     35.98512562	     -1.69181004	    -17.21594569	    -12.11039285	     -0.37403801	     15.93215988	     -7.46949746	      4.55787175	     -2.61043146	     14.16458139
      4.51000000	     -7.60452704	      3.21448738	     -7.36354896	     -0.45278038	     -0.04950871	      0.60408360	     -9.25610091	     -2.67655899	     -1.52004431	    -12.97076204	     14.62439113	      1.25916717	      3.43741819	     36.09131938	     -1.41539972	    -17.53317342	    -12.67830384	     -1.25511953	     15.36690965	     -6.40143024	      4.75531444	     -3.04466883	     14.20099941
      4.51500000	     -7.69020287	      3.58871577	     -7.51960730	     -0.44527429	     -0.05071966	      0.60381992	     -9.32222543	     -3.21720655	     -1.35473591	    -13.54309579	     14.48448531	      1.42179387	      3.54468903	     36.24750891	     -1.16332196	    -17.79751480	    -13.36243964	     -2.08589792	     14.82364650	     -5.88071863	      4.98955384	     -3.48492074	     14.31522185
      4.52000000	     -7.71493626	      3.98713594	     -7.48066374	     -0.43766008	     -0.05184932	      0.60335777	     -9.46974750	     -3.78315487	     -1.57458376	    -14.13792633	     14.31081889	      1.79178486	      3.72354631	     36.36118314	     -0.77826399	    -17.96774222	    -14.01066722	     -3.37329199	     14.28896905	     -4.15574939	      5.15684471	     -3.99432285	     14.18136502
      4.52500000	     -7.78056711	      4.40311424	     -7.53726753	     -0.43009144	     -0.05290471	      0.60298525	     -9.52502472	     -4.36862156	     -1.52555673	    -14.78025323	     14.03460333	      1.99310281	      3.90301628	     36.54784069	     -0.45137570	    -18.14526785	    -14.78602696	     -4.52419005	     13.79988850	     -2.96529927	      5.37547398	     -4.50055913	     14.17208336
      4.53000000	     -7.83945300	      4.84597267	     -7.58704122	     -0.42250856	     -0.05386869	      0.60257075	     -9.55543467	     -4.99129780	     -1.48293811	    -15.47232748	     13.70016036	      2.23596406	      4.10393338	     36.76208537	     -0.09373838	    -18.22199393	    -15.67160529	     -5.52534240	     13.29387544	     -2.30092055	      5.59392978	     -5.03170415	     14.17732520
      4.53500000	     -7.89772192	      5.30963431	     -7.60976452	     -0.41494235	     -0.05472135	      0.60211046	     -9.53523351	     -5.64014328	     -1.45321065	    -16.25767954	     13.27558139	      2.50622136	      4.34041027	     36.98929335	      0.29928418	    -18.19629429	    -16.59227713	     -6.46580082	     12.82396844	     -1.76604809	      5.80737632	     -5.58944379	     14.11846918
      4.54000000	     -7.94042719	      5.77029687	     -7.57545411	     -0.40734835	     -0.05549285	      0.60158509	     -9.51024493	     -6.28900468	     -1.51416675	    -17.09587280	     12.76460771	      2.83300815	      4.65113304	     37.22812920	      0.72339385	    -18.09224641	    -17.57609850	     -7.30924976	     12.34808204	     -1.19358793	      6.00226710	     -6.15339823	     14.00385034
      4.54500000	     -7.97586840	      6.22087380	     -7.51800526	     -0.39970484	     -0.05615236	      0.60113373	     -9.47728219	     -6.90269574	     -1.45750525	    -17.98021892	     12.08809692	      2.95064799	      4.82588402	     37.46918458	      1.13437604	    -17.97938245	    -18.63616747	     -7.87613685	     12.09041975	     -0.98330783	      6.19850189	     -6.72690695	     13.83364161
      4.55000000	     -8.01646631	      6.65365253	     -7.46642077	     -0.39219281	     -0.05674483	      0.60047241	     -9.33461895	     -7.55669724	     -1.58867599	    -19.02540707	     11.42272968	      3.50996527	      5.34030507	     37.72063938	      1.57023905	    -17.72298521	    -19.67506813	     -8.45329988	     11.48132653	     -0.57223820	      6.36854741	     -7.24307483	     13.72883886
      4.55500000	     -8.03859742	      7.06913115	     -7.38929755	     -0.38457582	     -0.05723384	      0.59987749	     -9.19678109	     -8.17712589	     -1.66595805	    -20.11463235	     10.57887698	      3.88768417	      5.82225359	     37.93693869	      1.99834691	    -17.50553274	    -20.73822483	     -8.77267890	     11.02753702	     -0.27996248	      6.53430305	     -7.76237767	     13.55867652
      4.56000000	     -8.07425406	      7.46474144	     -7.29313909	     -0.37697967	     -0.05760328	      0.59931814	     -8.99522943	     -8.76725148	     -1.67922552	    -21.29598231	      9.61166050	      4.24450324	      6.22774736	     38.13361768	      2.42036730	    -17.27200920	    -21.76154922	     -8.95398464	     10.67666766	     -0.11554095	      6.70839390	     -8.26737777	     13.37704824
      4.56500000	     -8.09859773	      7.80168577	     -7.18038430	     -0.36943595	     -0.05790222	      0.59863698	     -8.73712356	     -9.32266786	     -1.77785790	    -22.59905008	      8.55579379	      4.73325303	      6.73337704	     38.29324155	      2.82482407	    -17.02644051	    -22.75890306	     -8.96968880	     10.25642786	      0.05390076	      6.84845752	     -8.69518377	     13.19110593
      4.57000000	     -8.11480053	      8.11184967	     -7.05054034	     -0.36193969	     -0.05804033	      0.59795503	     -8.43521856	     -9.85865792	     -1.87322798	    -23.97380603	      7.36241637	      5.27324150	      7.35469126	     38.38425170	      3.23311603	    -16.73553764	    -23.65435555	     -8.93609642	      9.89869776	      0.24866996	      6.96547501	     -9.10048928	     12.96687217
